<?xml version="1.0" standalone="yes"?>

<svg version="1.1" viewBox="0.0 0.0 256.0 256.0" fill="none" stroke="none" stroke-linecap="square" stroke-miterlimit="10" xmlns="http://www.w3.org/2000/svg" xmlns:xlink="http://www.w3.org/1999/xlink"><clipPath id="p.0"><path d="m0 0l256.0 0l0 256.0l-256.0 0l0 -256.0z" clip-rule="nonzero"></path></clipPath><g clip-path="url(#p.0)"><path fill="#000000" fill-opacity="0.0" d="m0 0l256.0 0l0 256.0l-256.0 0z" fill-rule="nonzero"></path><path fill="#f9cb9c" d="m0.44330367 127.96185l0 0c0 -70.44892 57.110134 -127.55905 127.55906 -127.55905l0 0c33.830765 0 66.27591 13.439219 90.19786 37.361183c23.921967 23.921963 37.36119 56.367107 37.36119 90.197876l0 0c0 70.44893 -57.110138 127.55905 -127.55905 127.55905l0 0c-70.44893 0 -127.55906 -57.110123 -127.55906 -127.55905z" fill-rule="nonzero"></path><path fill="#69470f" d="m20.909533 127.92076l0 0c0 -59.142303 47.944313 -107.08661 107.08662 -107.08661l0 0c28.40113 0 55.63903 11.282307 75.72167 31.36494c20.082626 20.082634 31.364944 47.320534 31.364944 75.72167l0 0c0 59.142303 -47.94432 107.08661 -107.08662 107.08661l0 0c-59.142303 0 -107.08662 -47.944305 -107.08662 -107.08661z" fill-rule="nonzero"></path><path stroke="#5f400d" stroke-width="8.0" stroke-linejoin="round" stroke-linecap="butt" d="m20.909533 127.92076l0 0c0 -59.142303 47.944313 -107.08661 107.08662 -107.08661l0 0c28.40113 0 55.63903 11.282307 75.72167 31.36494c20.082626 20.082634 31.364944 47.320534 31.364944 75.72167l0 0c0 59.142303 -47.94432 107.08661 -107.08662 107.08661l0 0c-59.142303 0 -107.08662 -47.944305 -107.08662 -107.08661z" fill-rule="nonzero"></path><path fill="#fff2cc" d="m47.23772 47.280476l161.51181 0l0 161.51181l-161.51181 0z" fill-rule="nonzero"></path><path fill="#000000" fill-opacity="0.0" d="m57.20635 75.890305c2.6661797 -2.2851944 5.8006973 -4.025139 8.283703 -6.5081406c2.2701645 -2.2701645 -4.82983 8.778305 -7.0999947 6.5081406c-1.3944817 -1.3944855 -1.5777664 -4.7331467 0 -5.9162827c1.0583992 -0.7936783 3.5499954 0.45150757 3.5499954 1.7744293c0 1.6734848 -1.8765106 3.5499954 -3.5499954 3.5499954c-4.0655403 0 5.400738 -7.6907196 9.466282 -7.6907196" fill-rule="evenodd"></path><path stroke="#38761d" stroke-width="8.0" stroke-linejoin="round" stroke-linecap="butt" d="m57.20635 75.890305c2.6661797 -2.2851944 5.8006973 -4.025139 8.283703 -6.5081406c2.2701645 -2.2701645 -4.82983 8.778305 -7.0999947 6.5081406c-1.3944817 -1.3944855 -1.5777664 -4.7331467 0 -5.9162827c1.0583992 -0.7936783 3.5499954 0.45150757 3.5499954 1.7744293c0 1.6734848 -1.8765106 3.5499954 -3.5499954 3.5499954c-4.0655403 0 5.400738 -7.6907196 9.466282 -7.6907196" fill-rule="evenodd"></path><path fill="#000000" fill-opacity="0.0" d="m59.57264 75.769905c-0.465065 2.328865 -0.59072876 4.725151 -0.59072876 7.099991" fill-rule="evenodd"></path><path stroke="#38761d" stroke-width="8.0" stroke-linejoin="round" stroke-linecap="butt" d="m59.57264 75.769905c-0.465065 2.328865 -0.59072876 4.725151 -0.59072876 7.099991" fill-rule="evenodd"></path><path fill="#000000" fill-opacity="0.0" d="m56.614494 72.34031c-0.88721466 -0.29592896 -0.88721466 -0.29592896 -1.7744331 -0.5918579" fill-rule="evenodd"></path><path stroke="#38761d" stroke-width="8.0" stroke-linejoin="round" stroke-linecap="butt" d="m56.614494 72.34031c-0.88721466 -0.29592896 -0.88721466 -0.29592896 -1.7744331 -0.5918579" fill-rule="evenodd"></path><path fill="#000000" fill-opacity="0.0" d="m96.84816 52.224037c-2.7954788 0.39946365 -5.4598236 1.774437 -8.283699 1.774437" fill-rule="evenodd"></path><path stroke="#38761d" stroke-width="8.0" stroke-linejoin="round" stroke-linecap="butt" d="m96.84816 52.224037c-2.7954788 0.39946365 -5.4598236 1.774437 -8.283699 1.774437" fill-rule="evenodd"></path><path fill="#000000" fill-opacity="0.0" d="m186.78177 71.74845c-1.4469147 -2.8929138 -2.6828308 -7.6907196 -5.917404 -7.6907196" fill-rule="evenodd"></path><path stroke="#38761d" stroke-width="8.0" stroke-linejoin="round" stroke-linecap="butt" d="m186.78177 71.74845c-1.4469147 -2.8929138 -2.6828308 -7.6907196 -5.917404 -7.6907196" fill-rule="evenodd"></path><path fill="#000000" fill-opacity="0.0" d="m180.86436 65.11992c0.59184265 1.1837082 0.59184265 1.1837082 1.1837006 2.3674164" fill-rule="evenodd"></path><path stroke="#38761d" stroke-width="8.0" stroke-linejoin="round" stroke-linecap="butt" d="m180.86436 65.11992c0.59184265 1.1837082 0.59184265 1.1837082 1.1837006 2.3674164" fill-rule="evenodd"></path><path fill="#000000" fill-opacity="0.0" d="m180.27364 65.24032c0.75852966 1.5175629 1.4406738 3.38311 2.95813 4.1418457" fill-rule="evenodd"></path><path stroke="#38761d" stroke-width="8.0" stroke-linejoin="round" stroke-linecap="butt" d="m180.27364 65.24032c0.75852966 1.5175629 1.4406738 3.38311 2.95813 4.1418457" fill-rule="evenodd"></path><path fill="#000000" fill-opacity="0.0" d="m135.30626 48.082188c-2.0188751 -0.40392685 -3.8573914 -1.7744331 -5.916275 -1.7744331" fill-rule="evenodd"></path><path stroke="#38761d" stroke-width="8.0" stroke-linejoin="round" stroke-linecap="butt" d="m135.30626 48.082188c-2.0188751 -0.40392685 -3.8573914 -1.7744331 -5.916275 -1.7744331" fill-rule="evenodd"></path><path fill="#38761d" d="m39.308968 131.4919l0 0c0 -47.237305 38.293404 -85.5307 85.53071 -85.5307l0 0c22.684158 0 44.439224 9.011246 60.47934 25.051365c16.04013 16.040115 25.051376 37.79519 25.051376 60.47934l0 0c0 47.237305 -38.29341 85.530716 -85.530716 85.530716l0 0c-47.237305 0 -85.53071 -38.29341 -85.53071 -85.530716z" fill-rule="nonzero"></path><path fill="#000000" fill-opacity="0.0" d="m40.674217 144.06477c-2.9277267 5.8543243 -3.9677734 13.22287 -2.1693764 19.51654c0.8373871 2.930542 8.173336 -0.11463928 8.674141 2.8917694c0.63472366 3.810318 -2.0079346 8.834457 0.7235031 11.565887c2.2215805 2.2215881 6.4169235 0.27069092 9.397644 -0.72236633c1.6641464 -0.5544281 0.89006424 3.395935 1.4447517 5.0599976c2.214939 6.644821 3.1325226 15.662415 9.397644 18.794174c3.3460693 1.6725922 12.517509 0.45361328 10.843521 -2.8917542c-0.9213867 -1.8413391 -2.9612808 3.8828888 -2.1693802 5.7835083c1.8765793 4.503891 7.5821457 6.667877 12.289398 7.951767c4.9312897 1.344986 10.331169 -0.55226135 15.180031 -2.1693878c0.30901337 -0.10305786 2.2728348 3.0992432 4.3365097 4.337631c2.9221878 1.7535858 6.7301254 1.7853088 10.121147 1.4458923c0.21260071 -0.02128601 8.231506 -3.3912354 9.3965225 -2.8917694c6.822235 2.9249115 14.439896 6.6703796 21.685913 5.060013c5.1588135 -1.1464996 2.769638 -10.720245 6.50589 -14.457657c4.7971954 -4.798691 14.003708 4.843094 20.240036 2.1693878c6.024658 -2.5829468 2.411255 -13.174271 5.7835236 -18.795288c2.6295624 -4.383087 12.549942 2.2145233 15.180023 -2.1682587c2.507492 -4.178482 2.9696655 -9.650894 2.1682587 -14.457657c-0.32673645 -1.9597473 -2.850769 -4.3775024 -1.4458771 -5.782379c4.096466 -4.096466 11.153076 -6.608658 12.289398 -12.289398c0.59780884 -2.988617 -5.0473175 -6.5194244 -2.8917542 -8.674149c3.7646942 -3.7632294 11.339554 1.2936401 15.903534 -1.4458771c2.2816467 -1.3695526 1.2439423 -5.3411255 0.72236633 -7.950638c-0.891098 -4.4582977 -10.579544 -2.7911987 -11.565887 -7.229393c-1.8935089 -8.520035 5.008316 -17.556175 2.8917542 -26.023552c-1.3889465 -5.5564957 -10.639053 -4.248886 -15.903534 -6.5047607c-4.9773254 -2.1328201 -3.6811676 -10.190414 -5.7823944 -15.18116c-2.5979156 -6.1704865 -10.654327 -10.120018 -17.349411 -10.120018c-1.2047119 0 -2.890625 0.9646683 -2.890625 2.1693802c0 2.90139 5.792633 1.0614243 8.674149 0.72237396c7.479767 -0.88009644 4.1010895 -19.611588 -2.8917694 -22.408295c-9.399063 -3.7590408 -20.237167 0.7223778 -30.360046 0.7223778c-6.581299 0 -11.590607 -9.095261 -18.071793 -7.951767c-8.637619 1.5239601 -15.806648 9.397644 -24.577675 9.397644c-8.009605 0 -15.945183 -4.1573143 -23.854172 -2.891758c-3.5130768 0.56214523 -7.262718 2.213997 -9.397644 5.060013c-2.0702438 2.7597885 -1.5767212 7.3274 -4.3365097 9.397644c-4.634323 3.4764175 -11.912399 1.6933136 -16.627037 5.060013c-3.1618881 2.2578888 2.9761848 7.994652 1.4458809 11.565895c-2.34972 5.4834824 -12.288277 7.0460587 -12.288277 13.01178c0 6.712082 10.23 12.790688 7.228264 18.794159c-2.2858963 4.5717926 -8.700096 6.2027054 -10.842396 10.843521c-2.5427208 5.5082397 -3.8362312 12.237335 -2.1693802 18.070663c1.0342178 3.6193542 10.800076 7.4838104 7.229389 8.675262" fill-rule="evenodd"></path><path stroke="#38761d" stroke-width="16.0" stroke-linejoin="round" stroke-linecap="butt" d="m40.674217 144.06477c-2.9277267 5.8543243 -3.9677734 13.22287 -2.1693764 19.51654c0.8373871 2.930542 8.173336 -0.11463928 8.674141 2.8917694c0.63472366 3.810318 -2.0079346 8.834457 0.7235031 11.565887c2.2215805 2.2215881 6.4169235 0.27069092 9.397644 -0.72236633c1.6641464 -0.5544281 0.89006424 3.395935 1.4447517 5.0599976c2.214939 6.644821 3.1325226 15.662415 9.397644 18.794174c3.3460693 1.6725922 12.517509 0.45361328 10.843521 -2.8917542c-0.9213867 -1.8413391 -2.9612808 3.8828888 -2.1693802 5.7835083c1.8765793 4.503891 7.5821457 6.667877 12.289398 7.951767c4.9312897 1.344986 10.331169 -0.55226135 15.180031 -2.1693878c0.30901337 -0.10305786 2.2728348 3.0992432 4.3365097 4.337631c2.9221878 1.7535858 6.7301254 1.7853088 10.121147 1.4458923c0.21260071 -0.02128601 8.231506 -3.3912354 9.3965225 -2.8917694c6.822235 2.9249115 14.439896 6.6703796 21.685913 5.060013c5.1588135 -1.1464996 2.769638 -10.720245 6.50589 -14.457657c4.7971954 -4.798691 14.003708 4.843094 20.240036 2.1693878c6.024658 -2.5829468 2.411255 -13.174271 5.7835236 -18.795288c2.6295624 -4.383087 12.549942 2.2145233 15.180023 -2.1682587c2.507492 -4.178482 2.9696655 -9.650894 2.1682587 -14.457657c-0.32673645 -1.9597473 -2.850769 -4.3775024 -1.4458771 -5.782379c4.096466 -4.096466 11.153076 -6.608658 12.289398 -12.289398c0.59780884 -2.988617 -5.0473175 -6.5194244 -2.8917542 -8.674149c3.7646942 -3.7632294 11.339554 1.2936401 15.903534 -1.4458771c2.2816467 -1.3695526 1.2439423 -5.3411255 0.72236633 -7.950638c-0.891098 -4.4582977 -10.579544 -2.7911987 -11.565887 -7.229393c-1.8935089 -8.520035 5.008316 -17.556175 2.8917542 -26.023552c-1.3889465 -5.5564957 -10.639053 -4.248886 -15.903534 -6.5047607c-4.9773254 -2.1328201 -3.6811676 -10.190414 -5.7823944 -15.18116c-2.5979156 -6.1704865 -10.654327 -10.120018 -17.349411 -10.120018c-1.2047119 0 -2.890625 0.9646683 -2.890625 2.1693802c0 2.90139 5.792633 1.0614243 8.674149 0.72237396c7.479767 -0.88009644 4.1010895 -19.611588 -2.8917694 -22.408295c-9.399063 -3.7590408 -20.237167 0.7223778 -30.360046 0.7223778c-6.581299 0 -11.590607 -9.095261 -18.071793 -7.951767c-8.637619 1.5239601 -15.806648 9.397644 -24.577675 9.397644c-8.009605 0 -15.945183 -4.1573143 -23.854172 -2.891758c-3.5130768 0.56214523 -7.262718 2.213997 -9.397644 5.060013c-2.0702438 2.7597885 -1.5767212 7.3274 -4.3365097 9.397644c-4.634323 3.4764175 -11.912399 1.6933136 -16.627037 5.060013c-3.1618881 2.2578888 2.9761848 7.994652 1.4458809 11.565895c-2.34972 5.4834824 -12.288277 7.0460587 -12.288277 13.01178c0 6.712082 10.23 12.790688 7.228264 18.794159c-2.2858963 4.5717926 -8.700096 6.2027054 -10.842396 10.843521c-2.5427208 5.5082397 -3.8362312 12.237335 -2.1693802 18.070663c1.0342178 3.6193542 10.800076 7.4838104 7.229389 8.675262" fill-rule="evenodd"></path><path fill="#000000" fill-opacity="0.0" d="m42.414513 135.05765c-1.7274208 0.6905823 -3.9018745 1.2935791 -4.7325783 2.9581451" fill-rule="evenodd"></path><path stroke="#38761d" stroke-width="8.0" stroke-linejoin="round" stroke-linecap="butt" d="m42.414513 135.05765c-1.7274208 0.6905823 -3.9018745 1.2935791 -4.7325783 2.9581451" fill-rule="evenodd"></path><path fill="#000000" fill-opacity="0.0" d="m39.456367 159.31578c2.0208282 1.2628326 4.1251793 2.95813 6.5081406 2.95813" fill-rule="evenodd"></path><path stroke="#38761d" stroke-width="8.0" stroke-linejoin="round" stroke-linecap="butt" d="m39.456367 159.31578c2.0208282 1.2628326 4.1251793 2.95813 6.5081406 2.95813" fill-rule="evenodd"></path><path fill="#000000" fill-opacity="0.0" d="m172.58179 202.50758c1.8708954 0 5.3244324 0.095336914 5.3244324 -1.7755585" fill-rule="evenodd"></path><path stroke="#38761d" stroke-width="8.0" stroke-linejoin="round" stroke-linecap="butt" d="m172.58179 202.50758c1.8708954 0 5.3244324 0.095336914 5.3244324 -1.7755585" fill-rule="evenodd"></path><path fill="#000000" fill-opacity="0.0" d="m219.91432 132.69025c0.59184265 1.479065 0.59184265 1.479065 1.1837006 2.95813" fill-rule="evenodd"></path><path stroke="#38761d" stroke-width="8.0" stroke-linejoin="round" stroke-linecap="butt" d="m219.91432 132.69025c0.59184265 1.479065 0.59184265 1.479065 1.1837006 2.95813" fill-rule="evenodd"></path><path fill="#000000" fill-opacity="0.0" d="m43.006367 151.62393c0 3.76799 2.5842857 11.241837 -1.1837082 11.241837" fill-rule="evenodd"></path><path stroke="#38761d" stroke-width="8.0" stroke-linejoin="round" stroke-linecap="butt" d="m43.006367 151.62393c0 3.76799 2.5842857 11.241837 -1.1837082 11.241837" fill-rule="evenodd"></path><path fill="#000000" fill-opacity="0.0" d="m143.58997 213.15756c1.9117737 0.7642822 3.9631805 1.1229858 5.916275 1.7744446" fill-rule="evenodd"></path><path stroke="#38761d" stroke-width="8.0" stroke-linejoin="round" stroke-linecap="butt" d="m143.58997 213.15756c1.9117737 0.7642822 3.9631805 1.1229858 5.916275 1.7744446" fill-rule="evenodd"></path><path fill="#000000" fill-opacity="0.0" d="m176.72363 198.36574c-0.29109192 1.1638031 -0.5918579 2.3503265 -0.5918579 3.5499878" fill-rule="evenodd"></path><path stroke="#38761d" stroke-width="8.0" stroke-linejoin="round" stroke-linecap="butt" d="m176.72363 198.36574c-0.29109192 1.1638031 -0.5918579 2.3503265 -0.5918579 3.5499878" fill-rule="evenodd"></path><path fill="#000000" fill-opacity="0.0" d="m38.272663 127.957664c1.7233772 2.2967453 3.6525307 5.714775 2.3674126 8.28257" fill-rule="evenodd"></path><path stroke="#38761d" stroke-width="8.0" stroke-linejoin="round" stroke-linecap="butt" d="m38.272663 127.957664c1.7233772 2.2967453 3.6525307 5.714775 2.3674126 8.28257" fill-rule="evenodd"></path><path fill="#000000" fill-opacity="0.0" d="m62.531906 71.15772c2.5949936 -1.1127396 10.514229 -3.5499954 7.6907196 -3.5499954" fill-rule="evenodd"></path><path stroke="#38761d" stroke-width="8.0" stroke-linejoin="round" stroke-linecap="butt" d="m62.531906 71.15772c2.5949936 -1.1127396 10.514229 -3.5499954 7.6907196 -3.5499954" fill-rule="evenodd"></path><path fill="#000000" fill-opacity="0.0" d="m84.42261 53.998474c3.0579453 0.8739357 6.287033 1.1837082 9.467407 1.1837082" fill-rule="evenodd"></path><path stroke="#38761d" stroke-width="8.0" stroke-linejoin="round" stroke-linecap="butt" d="m84.42261 53.998474c3.0579453 0.8739357 6.287033 1.1837082 9.467407 1.1837082" fill-rule="evenodd"></path><path fill="#000000" fill-opacity="0.0" d="m211.03932 136.24042c0.575119 -1.7247925 1.1837158 -7.142578 1.1837158 -5.3244324c0 2.802887 3.3424835 8.490067 5.3244324 6.508133c1.8968353 -1.8968353 -4.362488 -6.343704 -6.508148 -4.7337036c-1.9060364 1.4302063 4.525406 4.2799683 6.508148 2.9581451c1.050827 -0.7005615 1.9075012 3.068283 2.95813 2.3674164c1.2496033 -0.8336029 -2.6548157 -1.9880524 -4.1418457 -1.7755585c-1.40802 0.2012024 -2.412323 3.2210693 -3.5499878 2.3674164c-1.4544983 -1.0914001 -1.1825867 -3.507141 -1.1825867 -5.3255615" fill-rule="evenodd"></path><path stroke="#38761d" stroke-width="8.0" stroke-linejoin="round" stroke-linecap="butt" d="m211.03932 136.24042c0.575119 -1.7247925 1.1837158 -7.142578 1.1837158 -5.3244324c0 2.802887 3.3424835 8.490067 5.3244324 6.508133c1.8968353 -1.8968353 -4.362488 -6.343704 -6.508148 -4.7337036c-1.9060364 1.4302063 4.525406 4.2799683 6.508148 2.9581451c1.050827 -0.7005615 1.9075012 3.068283 2.95813 2.3674164c1.2496033 -0.8336029 -2.6548157 -1.9880524 -4.1418457 -1.7755585c-1.40802 0.2012024 -2.412323 3.2210693 -3.5499878 2.3674164c-1.4544983 -1.0914001 -1.1825867 -3.507141 -1.1825867 -5.3255615" fill-rule="evenodd"></path><path fill="#000000" fill-opacity="0.0" d="m182.04807 65.83217c-2.255127 -3.383232 -2.6421814 -7.7550926 -4.7337036 -11.24184c-2.9490356 -4.916313 -17.158127 -4.549263 -17.158127 1.1837044c0 2.7682724 6.326233 2.5493202 8.283707 0.5918541c0.81318665 -0.8131981 -0.63705444 -2.795761 -1.7755737 -2.9581413c-0.8048248 -0.114788055 -1.3878937 2.2067947 -0.59072876 2.3662872c2.7141113 0.5430298 6.3253784 -1.365345 8.2825775 0.5918541c1.1914062 1.1914024 2.4394226 6.2811775 1.7755585 4.7325783c-1.0568542 -2.4653282 -5.177536 -7.061592 -6.508133 -4.7325783c-0.9280243 1.6243706 3.7677765 2.8120422 5.3244324 1.774437c0.883728 -0.58906174 0.43270874 -3.7091331 1.1837006 -2.9581413c2.3376312 2.3376274 -0.34776306 9.466278 2.9581451 9.466278c2.4946442 0 2.9716034 -4.6798973 2.3662872 -7.099991c-1.2442017 -4.9744835 -9.1719055 -6.922283 -14.199982 -5.9162865c-3.001999 0.6006317 -6.4837036 4.2786827 -8.87442 2.366291c-4.8360596 -3.8684807 -12.269241 -1.7431602 -18.341843 -2.9581413c-3.4592285 -0.69211197 -5.938492 -4.7325783 -9.466278 -4.7325783" fill-rule="evenodd"></path><path stroke="#38761d" stroke-width="8.0" stroke-linejoin="round" stroke-linecap="butt" d="m182.04807 65.83217c-2.255127 -3.383232 -2.6421814 -7.7550926 -4.7337036 -11.24184c-2.9490356 -4.916313 -17.158127 -4.549263 -17.158127 1.1837044c0 2.7682724 6.326233 2.5493202 8.283707 0.5918541c0.81318665 -0.8131981 -0.63705444 -2.795761 -1.7755737 -2.9581413c-0.8048248 -0.114788055 -1.3878937 2.2067947 -0.59072876 2.3662872c2.7141113 0.5430298 6.3253784 -1.365345 8.2825775 0.5918541c1.1914062 1.1914024 2.4394226 6.2811775 1.7755585 4.7325783c-1.0568542 -2.4653282 -5.177536 -7.061592 -6.508133 -4.7325783c-0.9280243 1.6243706 3.7677765 2.8120422 5.3244324 1.774437c0.883728 -0.58906174 0.43270874 -3.7091331 1.1837006 -2.9581413c2.3376312 2.3376274 -0.34776306 9.466278 2.9581451 9.466278c2.4946442 0 2.9716034 -4.6798973 2.3662872 -7.099991c-1.2442017 -4.9744835 -9.1719055 -6.922283 -14.199982 -5.9162865c-3.001999 0.6006317 -6.4837036 4.2786827 -8.87442 2.366291c-4.8360596 -3.8684807 -12.269241 -1.7431602 -18.341843 -2.9581413c-3.4592285 -0.69211197 -5.938492 -4.7325783 -9.466278 -4.7325783" fill-rule="evenodd"></path><path fill="#000000" fill-opacity="0.0" d="m209.26433 99.55769c0.38571167 0.25689697 4.1418457 0.0020217896 4.1418457 1.182579c0 6.0338364 -3.5499878 11.716148 -3.5499878 17.749985" fill-rule="evenodd"></path><path stroke="#38761d" stroke-width="8.0" stroke-linejoin="round" stroke-linecap="butt" d="m209.26433 99.55769c0.38571167 0.25689697 4.1418457 0.0020217896 4.1418457 1.182579c0 6.0338364 -3.5499878 11.716148 -3.5499878 17.749985" fill-rule="evenodd"></path><path fill="#000000" fill-opacity="0.0" d="m40.048435 126.77396c-0.68798447 4.126587 -5.2575073 10.105331 -1.7755623 12.424423c1.4122353 0.94059753 3.3832092 1.4415131 4.1418495 2.9592743c2.0452347 4.0917664 -4.4330864 9.885605 -1.774437 13.608124c2.1134682 2.9591675 5.0824356 5.257202 7.0999947 8.2825775c2.0441818 3.0652924 -0.46300125 9.282303 2.9581413 10.649979c2.0226898 0.80862427 4.6610413 -0.56285095 6.5081406 0.5918579c2.857872 1.7865906 2.0423393 6.4530487 3.5499954 9.467407c1.1998711 2.3989868 5.3094826 2.3329926 6.5081367 4.7325745c1.0048676 2.0116577 -0.23590088 5.502899 1.7755585 6.508148c13.435341 6.7144623 29.719528 5.375107 43.78254 10.649979c8.512596 3.1929932 17.578941 5.0125885 26.625526 5.9174194c3.5377655 0.35383606 6.8783875 5.140625 10.058136 3.5499878c7.240494 -3.6219635 13.174759 -9.4436035 20.117401 -13.608124c2.3736115 -1.4238129 7.0451965 1.8840637 8.2825775 -0.5918579c2.2478333 -4.497818 -0.058807373 -10.769241 2.95813 -14.79184c3.7608795 -5.014496 12.72702 -3.259613 17.159256 -7.6918488" fill-rule="evenodd"></path><path stroke="#38761d" stroke-width="8.0" stroke-linejoin="round" stroke-linecap="butt" d="m40.048435 126.77396c-0.68798447 4.126587 -5.2575073 10.105331 -1.7755623 12.424423c1.4122353 0.94059753 3.3832092 1.4415131 4.1418495 2.9592743c2.0452347 4.0917664 -4.4330864 9.885605 -1.774437 13.608124c2.1134682 2.9591675 5.0824356 5.257202 7.0999947 8.2825775c2.0441818 3.0652924 -0.46300125 9.282303 2.9581413 10.649979c2.0226898 0.80862427 4.6610413 -0.56285095 6.5081406 0.5918579c2.857872 1.7865906 2.0423393 6.4530487 3.5499954 9.467407c1.1998711 2.3989868 5.3094826 2.3329926 6.5081367 4.7325745c1.0048676 2.0116577 -0.23590088 5.502899 1.7755585 6.508148c13.435341 6.7144623 29.719528 5.375107 43.78254 10.649979c8.512596 3.1929932 17.578941 5.0125885 26.625526 5.9174194c3.5377655 0.35383606 6.8783875 5.140625 10.058136 3.5499878c7.240494 -3.6219635 13.174759 -9.4436035 20.117401 -13.608124c2.3736115 -1.4238129 7.0451965 1.8840637 8.2825775 -0.5918579c2.2478333 -4.497818 -0.058807373 -10.769241 2.95813 -14.79184c3.7608795 -5.014496 12.72702 -3.259613 17.159256 -7.6918488" fill-rule="evenodd"></path><path fill="#000000" fill-opacity="0.0" d="m47.739788 97.782005c-0.4707222 -2.352707 -2.880291 -5.403412 -1.1837082 -7.0999985c1.3156853 -1.3156815 3.6169662 -4.446411 4.7337036 -2.9581375c1.759758 2.34523 -4.2902946 8.947266 -5.917412 6.508133c-1.7816467 -2.6707687 9.370159 -8.778297 7.0999947 -6.508133c-1.6790695 1.6790695 -4.7325783 2.9498672 -4.7325783 5.3244324" fill-rule="evenodd"></path><path stroke="#38761d" stroke-width="8.0" stroke-linejoin="round" stroke-linecap="butt" d="m47.739788 97.782005c-0.4707222 -2.352707 -2.880291 -5.403412 -1.1837082 -7.0999985c1.3156853 -1.3156815 3.6169662 -4.446411 4.7337036 -2.9581375c1.759758 2.34523 -4.2902946 8.947266 -5.917412 6.508133c-1.7816467 -2.6707687 9.370159 -8.778297 7.0999947 -6.508133c-1.6790695 1.6790695 -4.7325783 2.9498672 -4.7325783 5.3244324" fill-rule="evenodd"></path><path fill="#000000" fill-opacity="0.0" d="m54.83957 68.79031c-0.5240021 3.143013 2.1249962 6.025551 3.5499954 8.875549" fill-rule="evenodd"></path><path stroke="#38761d" stroke-width="8.0" stroke-linejoin="round" stroke-linecap="butt" d="m54.83957 68.79031c-0.5240021 3.143013 2.1249962 6.025551 3.5499954 8.875549" fill-rule="evenodd"></path><path fill="#000000" fill-opacity="0.0" d="m73.18189 63.465977c1.1708603 -1.5621338 2.3947754 -3.2684593 4.140724 -4.1418495c0.72707367 -0.3637085 0.19795227 -2.5635529 -0.59072876 -2.3662872c-0.8555908 0.21399689 -1.9724655 1.9717178 -1.1837082 2.3662872c1.4220505 0.71136093 4.7325745 -0.89004517 4.1418533 -2.3662872c-0.42725372 -1.0677261 -1.9296188 -2.2900696 -2.9581451 -1.7755623c-0.9497223 0.4750862 0.1965332 3.352337 1.1825867 2.9581413c1.113945 -0.44532394 1.5514221 -4.270012 0.5918503 -3.5499954c-1.2014999 0.9015541 3.3687973 3.0634956 4.1418533 1.7755623c0.6809082 -1.1344261 -4.733406 -2.3672638 -3.5499954 -1.7755623c1.7987823 0.899395 7.3383484 0.2394867 5.9162827 -1.1825829c-0.8130646 -0.81306076 -4.1009445 1.9014702 -2.9581451 1.774437c1.4991531 -0.16664124 1.5457306 -0.062408447 2.9581451 -0.5918541c0.923378 -0.34613037 2.5960617 -1.8192863 1.7755585 -2.3662872c-0.9845886 -0.65639496 -2.3827744 -0.19459915 -3.5499954 0c-0.8253479 0.13759995 -2.5694122 1.5099831 -1.7755585 1.7744331c2.461113 0.8198509 7.691841 -3.7766533 7.691841 -1.182579" fill-rule="evenodd"></path><path stroke="#38761d" stroke-width="8.0" stroke-linejoin="round" stroke-linecap="butt" d="m73.18189 63.465977c1.1708603 -1.5621338 2.3947754 -3.2684593 4.140724 -4.1418495c0.72707367 -0.3637085 0.19795227 -2.5635529 -0.59072876 -2.3662872c-0.8555908 0.21399689 -1.9724655 1.9717178 -1.1837082 2.3662872c1.4220505 0.71136093 4.7325745 -0.89004517 4.1418533 -2.3662872c-0.42725372 -1.0677261 -1.9296188 -2.2900696 -2.9581451 -1.7755623c-0.9497223 0.4750862 0.1965332 3.352337 1.1825867 2.9581413c1.113945 -0.44532394 1.5514221 -4.270012 0.5918503 -3.5499954c-1.2014999 0.9015541 3.3687973 3.0634956 4.1418533 1.7755623c0.6809082 -1.1344261 -4.733406 -2.3672638 -3.5499954 -1.7755623c1.7987823 0.899395 7.3383484 0.2394867 5.9162827 -1.1825829c-0.8130646 -0.81306076 -4.1009445 1.9014702 -2.9581451 1.774437c1.4991531 -0.16664124 1.5457306 -0.062408447 2.9581451 -0.5918541c0.923378 -0.34613037 2.5960617 -1.8192863 1.7755585 -2.3662872c-0.9845886 -0.65639496 -2.3827744 -0.19459915 -3.5499954 0c-0.8253479 0.13759995 -2.5694122 1.5099831 -1.7755585 1.7744331c2.461113 0.8198509 7.691841 -3.7766533 7.691841 -1.182579" fill-rule="evenodd"></path><path fill="#000000" fill-opacity="0.0" d="m209.8559 126.77396c0 0.06236267 -0.6529083 10.604202 -0.5918579 10.649994c2.5295715 1.897171 6.3054504 0.59184265 9.467407 0.59184265" fill-rule="evenodd"></path><path stroke="#38761d" stroke-width="8.0" stroke-linejoin="round" stroke-linecap="butt" d="m209.8559 126.77396c0 0.06236267 -0.6529083 10.604202 -0.5918579 10.649994c2.5295715 1.897171 6.3054504 0.59184265 9.467407 0.59184265" fill-rule="evenodd"></path><path fill="#000000" fill-opacity="0.0" d="m210.44803 118.490265c0 -5.131317 0.5918579 -10.251251 0.5918579 -15.382568c0 -2.2050323 -5.9162903 -5.164299 -5.9162903 -2.9592667c0 2.1243362 1.1876678 4.150032 2.3663025 5.917412c0.7659912 1.1486282 1.198761 -4.826721 0 -4.1418533c-2.493454 1.4245377 1.0830078 10.852699 2.3662872 8.283707c0.6169586 -1.2350998 0.97576904 -5.118561 0 -4.1418533c-2.2474976 2.2496338 -4.027359 10.887314 -1.1825867 9.466278c5.0213013 -2.5082626 0.28735352 -15.974419 -5.3255615 -15.974419" fill-rule="evenodd"></path><path stroke="#38761d" stroke-width="8.0" stroke-linejoin="round" stroke-linecap="butt" d="m210.44803 118.490265c0 -5.131317 0.5918579 -10.251251 0.5918579 -15.382568c0 -2.2050323 -5.9162903 -5.164299 -5.9162903 -2.9592667c0 2.1243362 1.1876678 4.150032 2.3663025 5.917412c0.7659912 1.1486282 1.198761 -4.826721 0 -4.1418533c-2.493454 1.4245377 1.0830078 10.852699 2.3662872 8.283707c0.6169586 -1.2350998 0.97576904 -5.118561 0 -4.1418533c-2.2474976 2.2496338 -4.027359 10.887314 -1.1825867 9.466278c5.0213013 -2.5082626 0.28735352 -15.974419 -5.3255615 -15.974419" fill-rule="evenodd"></path><path fill="#000000" fill-opacity="0.0" d="m178.49806 66.42402c-3.2824554 -6.5617905 -19.530258 -5.898529 -17.74997 -13.0162735c0.86138916 -3.4439049 7.168976 -0.69646454 10.649979 0c2.7072144 0.54164505 2.6787262 8.950981 0 8.282574c-1.6346436 -0.4078827 -2.5281677 -3.2258224 -1.7744293 -4.7325783c1.0327606 -2.0645447 4.199692 -2.3674126 6.508133 -2.3674126c1.4221191 0 3.0717468 2.3151894 2.3662872 3.5499954c-1.4934235 2.614048 -5.283783 6.5406 -7.6918335 4.7337036c-3.030182 -2.2737122 -5.280594 -5.9016647 -8.874435 -7.0999947c-3.0170746 -1.0060081 -6.4094543 -0.30976868 -9.467407 -1.1837044c-7.615738 -2.1765175 -22.48256 0.22880173 -22.48256 -7.691845" fill-rule="evenodd"></path><path stroke="#38761d" stroke-width="8.0" stroke-linejoin="round" stroke-linecap="butt" d="m178.49806 66.42402c-3.2824554 -6.5617905 -19.530258 -5.898529 -17.74997 -13.0162735c0.86138916 -3.4439049 7.168976 -0.69646454 10.649979 0c2.7072144 0.54164505 2.6787262 8.950981 0 8.282574c-1.6346436 -0.4078827 -2.5281677 -3.2258224 -1.7744293 -4.7325783c1.0327606 -2.0645447 4.199692 -2.3674126 6.508133 -2.3674126c1.4221191 0 3.0717468 2.3151894 2.3662872 3.5499954c-1.4934235 2.614048 -5.283783 6.5406 -7.6918335 4.7337036c-3.030182 -2.2737122 -5.280594 -5.9016647 -8.874435 -7.0999947c-3.0170746 -1.0060081 -6.4094543 -0.30976868 -9.467407 -1.1837044c-7.615738 -2.1765175 -22.48256 0.22880173 -22.48256 -7.691845" fill-rule="evenodd"></path><path fill="#000000" fill-opacity="0.0" d="m64.89823 190.67389c-0.837059 3.3466187 2.885109 6.4351044 5.3244324 8.87442" fill-rule="evenodd"></path><path stroke="#38761d" stroke-width="8.0" stroke-linejoin="round" stroke-linecap="butt" d="m64.89823 190.67389c-0.837059 3.3466187 2.885109 6.4351044 5.3244324 8.87442" fill-rule="evenodd"></path><path fill="#000000" fill-opacity="0.0" d="m80.28188 205.46573c1.6062775 2.0080261 3.936699 4.1418457 6.5081406 4.1418457" fill-rule="evenodd"></path><path stroke="#38761d" stroke-width="8.0" stroke-linejoin="round" stroke-linecap="butt" d="m80.28188 205.46573c1.6062775 2.0080261 3.936699 4.1418457 6.5081406 4.1418457" fill-rule="evenodd"></path><path fill="#000000" fill-opacity="0.2" d="m178.39423 73.011536l75.464554 75.68504l-105.5748 105.38582l-75.46456 -75.68504z" fill-rule="nonzero"></path><path fill="#cc4125" d="m53.086178 128.04007l0 0c0 -41.37352 33.539867 -74.91339 74.91339 -74.91339l0 0c19.868263 0 38.922783 7.892639 52.971764 21.941624c14.048981 14.048988 21.94162 33.1035 21.94162 52.971764l0 0c0 41.37352 -33.53987 74.91339 -74.91338 74.91339l0 0c-41.37352 0 -74.91339 -33.53987 -74.91339 -74.91339z" fill-rule="nonzero"></path><path fill="#000000" fill-opacity="0.0" d="m64.8191 128.03844l0 0c0 -34.937447 28.322395 -63.259842 63.25985 -63.259842l0 0c16.777542 0 32.867935 6.664856 44.73146 18.528381c11.86351 11.863518 18.528381 27.95391 18.528381 44.73146l0 0c0 34.93744 -28.322403 63.259842 -63.259842 63.259842l0 0c-34.937454 0 -63.25985 -28.322403 -63.25985 -63.259842z" fill-rule="nonzero"></path><path stroke="#e06666" stroke-width="4.0" stroke-linejoin="round" stroke-linecap="butt" d="m64.8191 128.03844l0 0c0 -34.937447 28.322395 -63.259842 63.25985 -63.259842l0 0c16.777542 0 32.867935 6.664856 44.73146 18.528381c11.86351 11.863518 18.528381 27.95391 18.528381 44.73146l0 0c0 34.93744 -28.322403 63.259842 -63.259842 63.259842l0 0c-34.937454 0 -63.25985 -28.322403 -63.25985 -63.259842z" fill-rule="nonzero"></path><path fill="#dd7e6b" d="m108.73204 127.96144l0 0c0 -10.77607 8.735733 -19.51181 19.51181 -19.51181l0 0c5.1748505 0 10.137756 2.0557022 13.796936 5.714882c3.6591797 3.659172 5.7148743 8.622078 5.7148743 13.796928l0 0c0 10.776077 -8.735733 19.51181 -19.51181 19.51181l0 0c-10.776077 0 -19.51181 -8.735733 -19.51181 -19.51181z" fill-rule="nonzero"></path><path fill="#dd7e6b" d="m96.31319 166.0374l0 0c-0.5928421 -3.1618347 1.4988022 -6.205597 4.6718216 -6.7984314q2.8726273 -0.5367279 5.7452545 -1.0734406q0.5367203 2.862503 1.0734406 5.724991l0 0c0.5928421 3.1618347 -1.4988022 6.205597 -4.6718216 6.7984467l0 0c-3.1730118 0.59284973 -6.2258453 -1.4897308 -6.818695 -4.6515656z" fill-rule="nonzero"></path><path fill="#dd7e6b" d="m163.16943 166.22528l0 0c0.69351196 -3.1431885 -1.3014069 -6.2534637 -4.45578 -6.9469757q-2.8557434 -0.6278534 -5.711502 -1.255722q-0.6278534 2.8456268 -1.255722 5.6912537l0 0c-0.69351196 3.1431885 1.3014069 6.2534485 4.45578 6.9469604l0 0c3.1543732 0.69351196 6.273712 -1.2923279 6.967224 -4.4355164z" fill-rule="nonzero"></path><path fill="#dd7e6b" d="m79.09374 115.083725l0 0c1.2005997 2.9865875 4.6010284 4.4283676 7.5950775 3.220314q2.7106018 -1.0936966 5.421196 -2.1873856q-1.086937 -2.7038498 -2.1738815 -5.407692l0 0c-1.2005997 -2.9865952 -4.6010284 -4.4283752 -7.5950775 -3.220314l0 0c-2.9940414 1.2080536 -4.447914 4.60849 -3.2473145 7.5950775z" fill-rule="nonzero"></path><path fill="#dd7e6b" d="m173.89243 107.351555l0 0c-3.0499878 -1.0290833 -6.359741 0.6182327 -7.3925476 3.67939q-0.93504333 2.7713623 -1.8700867 5.5427246q2.7612457 0.9316635 5.522476 1.863327l0 0c3.0499725 1.0290833 6.359726 -0.61824036 7.3925476 -3.6793976l0 0c1.0328064 -3.0611572 -0.602417 -6.3769608 -3.6523895 -7.406044z" fill-rule="nonzero"></path><path fill="#dd7e6b" d="m123.838844 76.79785l0 0c-2.2483292 2.3042603 -2.1969452 6.000908 0.11476898 8.256699q2.092865 2.0422287 4.18573 4.084465q2.035492 -2.0861206 4.0709686 -4.1722336l0 0c2.2483215 -2.3042603 2.1969452 -6.000908 -0.11477661 -8.256691l0 0c-2.3117065 -2.2557907 -6.008362 -2.2164917 -8.256691 0.087760925z" fill-rule="nonzero"></path><path fill="#000000" fill-opacity="0.2" d="m253.88406 148.6564c-8.865601 54.12758 -51.34015 96.52809 -105.48312 105.29924z" fill-rule="nonzero"></path></g></svg>

