<?xml version="1.0" standalone="yes"?>

<svg version="1.1" viewBox="0.0 0.0 64.0 48.0" fill="none" stroke="none" stroke-linecap="square" stroke-miterlimit="10" xmlns="http://www.w3.org/2000/svg" xmlns:xlink="http://www.w3.org/1999/xlink"><clipPath id="p.0"><path d="m0 0l64.0 0l0 48.0l-64.0 0l0 -48.0z" clip-rule="nonzero"></path></clipPath><g clip-path="url(#p.0)"><path fill="#000000" fill-opacity="0.0" d="m0 0l64.0 0l0 48.0l-64.0 0z" fill-rule="nonzero"></path><path fill="#434343" d="m16.685915 14.870516l15.561796 32.566933l15.052376 -32.566933z" fill-rule="nonzero"></path><path fill="#000000" fill-opacity="0.2" d="m35.818375 23.130707l5.1504097 5.405855l-2.6307259 5.7437496l-5.1504097 -5.405855z" fill-rule="nonzero"></path><path fill="#363636" fill-opacity="0.65" d="m32.24917 15.105157l0 32.09449l-15.559055 -32.09449z" fill-rule="nonzero"></path><path fill="#666666" d="m16.685915 15.965752l0 0c0 -8.453871 6.853216 -15.307087 15.307085 -15.307087l0 0c4.0596924 0 7.9531097 1.6127062 10.823746 4.4833417c2.870636 2.870636 4.483341 6.7640533 4.483341 10.823745l0 0c0 8.453871 -6.8532143 15.307087 -15.307087 15.307087l0 0c-8.453869 0 -15.307085 -6.853216 -15.307085 -15.307087z" fill-rule="nonzero"></path><path fill="#000000" fill-opacity="0.2" d="m38.04182 9.364479l9.070866 9.070868l-12.661419 12.661417l-9.070866 -9.070868z" fill-rule="nonzero"></path><path fill="#cccccc" d="m23.004095 15.978664l0 0c0 -4.966214 4.0259132 -8.992126 8.992126 -8.992126l0 0c2.384859 0 4.672041 0.947382 6.3583927 2.6337323c1.6863518 1.6863508 2.6337318 3.9735336 2.6337318 6.3583937l0 0c0 4.966213 -4.0259094 8.992126 -8.992125 8.992126l0 0c-4.966213 0 -8.992126 -4.0259132 -8.992126 -8.992126z" fill-rule="nonzero"></path><path fill="#000000" fill-opacity="0.0" d="m24.412275 15.975541l0 0c0 -4.1921453 3.398407 -7.5905504 7.5905514 -7.5905504l0 0c2.0131378 0 3.9438248 0.799716 5.3673325 2.2232208c1.4235039 1.4235039 2.2232208 3.3541908 2.2232208 5.3673296l0 0c0 4.1921453 -3.398407 7.5905523 -7.5905533 7.5905523l0 0c-4.1921444 0 -7.5905514 -3.398407 -7.5905514 -7.5905523z" fill-rule="nonzero"></path><path stroke="#999999" stroke-width="1.0" stroke-linejoin="round" stroke-linecap="butt" d="m24.412275 15.975541l0 0c0 -4.1921453 3.398407 -7.5905504 7.5905514 -7.5905504l0 0c2.0131378 0 3.9438248 0.799716 5.3673325 2.2232208c1.4235039 1.4235039 2.2232208 3.3541908 2.2232208 5.3673296l0 0c0 4.1921453 -3.398407 7.5905523 -7.5905533 7.5905523l0 0c-4.1921444 0 -7.5905514 -3.398407 -7.5905514 -7.5905523z" fill-rule="nonzero"></path><path fill="#666666" d="m31.309214 10.326249l0 0c0 -0.38751698 0.31414604 -0.701663 0.70166206 -0.701663l0 0c0.18609238 0 0.364563 0.07392502 0.49615097 0.205513c0.13158798 0.13158703 0.205513 0.31005764 0.205513 0.49615002l0 0c0 0.38751793 -0.31414413 0.701663 -0.701664 0.701663l0 0c-0.38751602 0 -0.70166206 -0.3141451 -0.70166206 -0.701663z" fill-rule="nonzero"></path><path fill="#666666" d="m26.084665 14.170537l0 0c0 -0.38751793 0.31414413 -0.701663 0.70166206 -0.701663l0 0c0.18609238 0 0.364563 0.07392502 0.49615097 0.205513c0.13158798 0.13158703 0.205513 0.31005764 0.205513 0.49615002l0 0c0 0.38751793 -0.31414604 0.701663 -0.701664 0.701663l0 0c-0.38751793 0 -0.70166206 -0.3141451 -0.70166206 -0.701663z" fill-rule="nonzero"></path><path fill="#666666" d="m36.591995 14.170537l0 0c0 -0.38751793 0.31414413 -0.701663 0.70166016 -0.701663l0 0c0.18609238 0 0.364563 0.07392502 0.49615097 0.205513c0.13158798 0.13158703 0.205513 0.31005764 0.205513 0.49615002l0 0c0 0.38751793 -0.31414413 0.701663 -0.701664 0.701663l0 0c-0.38751602 0 -0.70166016 -0.3141451 -0.70166016 -0.701663z" fill-rule="nonzero"></path><path fill="#666666" d="m28.190968 20.417809l0 0c0 -0.38751793 0.31414413 -0.70166206 0.70166206 -0.70166206l0 0c0.18609238 0 0.364563 0.07392311 0.49615097 0.2055111c0.13158798 0.13158798 0.205513 0.3100586 0.205513 0.49615097l0 0c0 0.38751793 -0.31414604 0.70166206 -0.701664 0.70166206l0 0c-0.38751793 0 -0.70166206 -0.31414413 -0.70166206 -0.70166206z" fill-rule="nonzero"></path><path fill="#666666" d="m34.843452 20.417809l0 0c0 -0.38751793 0.31414413 -0.70166206 0.701664 -0.70166206l0 0c0.18609238 0 0.364563 0.07392311 0.49615097 0.2055111c0.13158417 0.13158798 0.20550919 0.3100586 0.20550919 0.49615097l0 0c0 0.38751793 -0.31414413 0.70166206 -0.70166016 0.70166206l0 0c-0.38751984 0 -0.701664 -0.31414413 -0.701664 -0.70166206z" fill-rule="nonzero"></path><path fill="#999999" d="m29.68276 15.972806l0 0c0 -1.2959118 1.0505428 -2.3464565 2.3464565 -2.3464565l0 0c0.62231827 0 1.2191505 0.24721527 1.659195 0.6872616c0.4400444 0.44004536 0.6872597 1.0368757 0.6872597 1.659195l0 0c0 1.2959127 -1.0505447 2.3464575 -2.3464546 2.3464575l0 0c-1.2959137 0 -2.3464565 -1.0505447 -2.3464565 -2.3464575z" fill-rule="nonzero"></path><path fill="#000000" fill-opacity="0.2" d="m47.09853 18.443989c-1.0638733 6.49531 -6.16082 11.583372 -12.657974 12.635908z" fill-rule="nonzero"></path></g></svg>

